<?xml version="1.0" encoding="UTF-8"?>
<svg version="1.1" xmlns="http://www.w3.org/2000/svg" width="500" height="500">
<path d="M0 0 C165 0 330 0 500 0 C500 165 500 330 500 500 C335 500 170 500 0 500 C0 335 0 170 0 0 Z " fill="#FEFEFE" transform="translate(0,0)"/>
<path d="M0 0 C4.31976966 2.22065124 7.55135489 5.27428868 10.9296875 8.69921875 C11.75981857 9.53003716 11.75981857 9.53003716 12.60671997 10.37763977 C13.77388303 11.54781369 14.93862504 12.72040687 16.10107422 13.89526367 C17.85730634 15.66962371 19.62127868 17.4359783 21.38671875 19.20117188 C26.63785434 24.46931858 31.83308961 29.73916301 36.63720703 35.42504883 C37.98810612 37.05052391 37.98810612 37.05052391 39.66748047 38.51049805 C41 40 41 40 41.1875 43.1875 C41.0946875 44.5796875 41.0946875 44.5796875 41 46 C38.27925647 46.8750308 36.78100897 47.32124084 34 47 C30.88463957 44.95689956 28.50516049 42.30041965 26 39.5625 C25.32710938 38.86189453 24.65421875 38.16128906 23.9609375 37.43945312 C20.08492034 33.37262817 16.38160587 29.16540754 12.69677734 24.92602539 C9.98457939 21.84738803 7.17572345 18.87544577 4.3125 15.9375 C3.75755859 15.34517578 3.20261719 14.75285156 2.63085938 14.14257812 C0.83850597 12.25252303 0.83850597 12.25252303 -2 10 C-6.33222285 10.44240426 -8.3543682 13.02068697 -11.3125 16.0625 C-11.80250488 16.56346191 -12.29250977 17.06442383 -12.79736328 17.58056641 C-15.98603963 20.86602871 -19.00514447 24.26340526 -21.96875 27.75 C-25.37276859 31.52060521 -29.01696723 35.05590037 -32.64599609 38.60888672 C-36.5853398 42.13623503 -36.5853398 42.13623503 -38.13371277 46.92869568 C-38.13752457 47.71462601 -38.14133636 48.50055634 -38.14526367 49.31030273 C-38.15164352 50.20140244 -38.15802338 51.09250214 -38.16459656 52.01060486 C-38.16570938 52.97519119 -38.1668222 53.93977753 -38.16796875 54.93359375 C-38.17129715 55.92247086 -38.17462555 56.91134796 -38.17805481 57.93019104 C-38.18312339 60.02417535 -38.18546316 62.11816776 -38.18530273 64.2121582 C-38.18748867 67.42087064 -38.20564368 70.62923909 -38.22460938 73.83789062 C-38.22754337 75.86979049 -38.22952813 77.90169199 -38.23046875 79.93359375 C-38.23765427 80.89615585 -38.24483978 81.85871796 -38.25224304 82.85044861 C-38.24916641 83.74470047 -38.24608978 84.63895233 -38.24291992 85.56030273 C-38.24505745 86.74039162 -38.24505745 86.74039162 -38.24723816 87.94432068 C-38.11966058 90.30949978 -38.11966058 90.30949978 -36 93 C-33.23443668 93.4579608 -33.23443668 93.4579608 -29.94555664 93.38476562 C-28.03831566 93.39993225 -28.03831566 93.39993225 -26.09254456 93.41540527 C-25.41114473 93.41384933 -24.72974491 93.4122934 -24.02769661 93.41069031 C-21.89669194 93.40622177 -19.766522 93.42018349 -17.63560486 93.43908691 C-13.11125033 93.47591857 -8.58698241 93.48958623 -4.0625 93.5 C1.17639464 93.51206831 6.41488432 93.53356998 11.65359688 93.58000183 C13.75375781 93.59359732 15.85341016 93.58939655 17.95359802 93.58459473 C19.22824417 93.59470581 20.50289032 93.60481689 21.81616211 93.61523438 C22.94042099 93.61728882 24.06467987 93.61934326 25.2230072 93.62145996 C28 94 28 94 29.89430237 95.3638916 C31 97 31 97 30.875 99.5625 C30 102 30 102 27 104 C24.24992371 104.26742554 24.24992371 104.26742554 20.87963867 104.29052734 C18.9870356 104.3096669 18.9870356 104.3096669 17.05619812 104.32919312 C15.67678989 104.33225109 14.2973796 104.33447868 12.91796875 104.3359375 C11.50173304 104.34236583 10.08549867 104.34909422 8.66926575 104.35610962 C5.6993197 104.36808645 2.72948998 104.37179017 -0.24047852 104.37060547 C-4.03694744 104.37040254 -7.83266557 104.3976745 -11.62895679 104.43214989 C-14.5553069 104.45444693 -17.48147733 104.45844213 -20.40790367 104.45738602 C-21.8068875 104.45973893 -23.20587651 104.46854508 -24.60477638 104.48405075 C-26.56690374 104.50375835 -28.52925174 104.49533797 -30.49145508 104.48583984 C-31.60603592 104.48868988 -32.72061676 104.49153992 -33.86897278 104.49447632 C-38.87767731 103.70346251 -41.97550722 101.13524875 -45.3125 97.4375 C-47.72596919 93.95137784 -48.12986737 91.29920941 -48.17700195 87.16479492 C-48.18983719 86.18335007 -48.20267242 85.20190521 -48.21589661 84.1907196 C-48.22328354 83.13133682 -48.23067047 82.07195404 -48.23828125 80.98046875 C-48.246353 79.88914139 -48.25442474 78.79781403 -48.26274109 77.67341614 C-48.27657661 75.36261583 -48.28730114 73.05179514 -48.29516602 70.7409668 C-48.31238204 67.21168213 -48.35627459 63.68333339 -48.40039062 60.15429688 C-48.41051743 57.90886105 -48.41903357 55.66341727 -48.42578125 53.41796875 C-48.44328934 52.36465866 -48.46079742 51.31134857 -48.47883606 50.22612 C-48.45666076 42.71525883 -47.19237875 39.46224995 -42.10546875 33.9453125 C-41.47253906 33.34460938 -40.83960938 32.74390625 -40.1875 32.125 C-37.58806877 29.64884076 -35.18867794 27.08405636 -32.8515625 24.36328125 C-28.52036461 19.37194226 -23.86937602 14.72278397 -19.1875 10.0625 C-18.32962891 9.20076172 -17.47175781 8.33902344 -16.58789062 7.45117188 C-15.76869141 6.63326172 -14.94949219 5.81535156 -14.10546875 4.97265625 C-13.36449951 4.23281494 -12.62353027 3.49297363 -11.86010742 2.73071289 C-8.37631272 -0.51073883 -4.58478618 -0.69391358 0 0 Z " fill="#82DA5C" transform="translate(173,196)"/>
<path d="M0 0 C5.4759375 -0.0928125 5.4759375 -0.0928125 11.0625 -0.1875 C12.76805054 -0.22846802 12.76805054 -0.22846802 14.50805664 -0.27026367 C20.46665852 -0.31898015 24.78026791 0.03553259 30 3 C32.25821013 5.69528306 32.91209844 7.48357833 33.5 10.9375 C32.79487648 15.25638159 31.07869218 16.92130782 28 20 C27.34 20 26.68 20 26 20 C26.5053125 20.91523438 27.010625 21.83046875 27.53125 22.7734375 C28.18771927 23.97383845 28.8439573 25.17436587 29.5 26.375 C29.83386719 26.97828125 30.16773438 27.5815625 30.51171875 28.203125 C33 32.7734375 33 32.7734375 33 35 C29.04 35 25.08 35 21 35 C20.61328125 34.14535156 20.2265625 33.29070312 19.828125 32.41015625 C19.30734375 31.30542969 18.7865625 30.20070313 18.25 29.0625 C17.73953125 27.96035156 17.2290625 26.85820312 16.703125 25.72265625 C15.15483041 22.5472255 15.15483041 22.5472255 11 22 C11 26.29 11 30.58 11 35 C7.37 35 3.74 35 0 35 C0 23.45 0 11.9 0 0 Z " fill="#050505" transform="translate(323,248)"/>
<path d="M0 0 C4.29 0 8.58 0 13 0 C16.37642688 7.80798715 19.40582565 15.69414553 22.3125 23.6875 C22.67408203 24.68023926 23.03566406 25.67297852 23.40820312 26.69580078 C26 33.86801411 26 33.86801411 26 35 C22.04 35 18.08 35 14 35 C13.505 32.525 13.505 32.525 13 30 C8.71 30 4.42 30 0 30 C-0.495 32.475 -0.495 32.475 -1 35 C-4.63 35 -8.26 35 -12 35 C-9.91787123 26.88037164 -7.31571617 19.13427354 -4.3125 11.3125 C-3.89677734 10.21744141 -3.48105469 9.12238281 -3.05273438 7.99414062 C-2.03971612 5.32769027 -1.02050893 2.6635925 0 0 Z " fill="#090909" transform="translate(371,248)"/>
<path d="M0 0 C4.29 0 8.58 0 13 0 C16.37642688 7.80798715 19.40582565 15.69414553 22.3125 23.6875 C22.67408203 24.68023926 23.03566406 25.67297852 23.40820312 26.69580078 C26 33.86801411 26 33.86801411 26 35 C22.04 35 18.08 35 14 35 C13.505 32.525 13.505 32.525 13 30 C8.71 30 4.42 30 0 30 C-0.495 32.475 -0.495 32.475 -1 35 C-4.63 35 -8.26 35 -12 35 C-9.91787123 26.88037164 -7.31571617 19.13427354 -4.3125 11.3125 C-3.89677734 10.21744141 -3.48105469 9.12238281 -3.05273438 7.99414062 C-2.03971612 5.32769027 -1.02050893 2.6635925 0 0 Z " fill="#090909" transform="translate(293,248)"/>
<path d="M0 0 C4.22205453 1.45588087 6.83787556 3.0361052 9 7 C9 8.32 9 9.64 9 11 C5.7 11 2.4 11 -1 11 C-1.33 10.34 -1.66 9.68 -2 9 C-3.89533342 8.53476937 -3.89533342 8.53476937 -6.0625 8.375 C-7.361875 8.25125 -8.66125 8.1275 -10 8 C-9.67 8.99 -9.34 9.98 -9 11 C-5.6575158 12.19267613 -2.33184182 13.12253337 1.09765625 14.01757812 C6.54015961 15.54921158 6.54015961 15.54921158 8.984375 17.9453125 C10.541587 21.09567216 10.36408373 23.54120459 10 27 C8.17533204 31.22554686 6.10991183 33.02300989 2 35 C-0.74768999 35.31540185 -3.19911849 35.46546861 -5.9375 35.4375 C-6.97293945 35.4674707 -6.97293945 35.4674707 -8.02929688 35.49804688 C-13.15993932 35.49318371 -16.05343638 34.20620978 -20 31 C-22.08007422 27.9744375 -22 26.85524891 -22 23 C-18.37 23 -14.74 23 -11 23 C-11 24.32 -11 25.64 -11 27 C-7.7 27 -4.4 27 -1 27 C-1 26.01 -1 25.02 -1 24 C-1.79664063 23.81824219 -2.59328125 23.63648438 -3.4140625 23.44921875 C-17.61271676 20.08092486 -17.61271676 20.08092486 -21 15 C-21.60124091 11.91285916 -21.63820822 9.08287023 -21 6 C-15.57382202 -1.09064975 -8.14255584 -0.554724 0 0 Z " fill="#070707" transform="translate(232,248)"/>
<path d="M0 0 C3.96 0 7.92 0 12 0 C12.82022612 2.35171843 13.6312654 4.7059851 14.4375 7.0625 C14.66759766 7.71927734 14.89769531 8.37605469 15.13476562 9.05273438 C16.60434128 13.37626855 17.48646211 17.46079726 18 22 C18.66 22 19.32 22 20 22 C20.11214844 21.00871094 20.22429687 20.01742188 20.33984375 18.99609375 C20.93417355 14.83578513 22.17667485 11.01811858 23.5625 7.0625 C23.79646484 6.37865234 24.03042969 5.69480469 24.27148438 4.99023438 C24.84211829 3.32491499 25.42027098 1.66217507 26 0 C29.63 0 33.26 0 37 0 C34.9459576 7.84153295 32.56458836 15.47986973 29.875 23.125 C29.51535156 24.16398437 29.15570313 25.20296875 28.78515625 26.2734375 C26.13051748 33.86948252 26.13051748 33.86948252 25 35 C22.81360547 35.07258946 20.62499611 35.08373783 18.4375 35.0625 C16.64119141 35.04896484 16.64119141 35.04896484 14.80859375 35.03515625 C13.88175781 35.02355469 12.95492187 35.01195312 12 35 C10.44934005 30.65921868 8.90115137 26.31756691 7.35522461 21.97509766 C6.82920715 20.49861994 6.30252069 19.02238038 5.77514648 17.54638672 C5.01629543 15.42217594 4.25987132 13.29711428 3.50390625 11.171875 C3.26845596 10.51443298 3.03300568 9.85699097 2.79042053 9.17962646 C1.70764402 6.12860441 0.78667443 3.14669773 0 0 Z " fill="#090909" transform="translate(150,248)"/>
<path d="M0 0 C11.22 0 22.44 0 34 0 C34 3.3 34 6.6 34 10 C30.37 10 26.74 10 23 10 C23 18.25 23 26.5 23 35 C19.37 35 15.74 35 12 35 C12 26.42 12 17.84 12 9 C8.04 9 4.08 9 0 9 C0 6.03 0 3.06 0 0 Z " fill="#101010" transform="translate(245,248)"/>
<path d="M0 0 C3.96 0 7.92 0 12 0 C12 11.55 12 23.1 12 35 C8.04 35 4.08 35 0 35 C0 23.45 0 11.9 0 0 Z " fill="#171717" transform="translate(192,248)"/>
<path d="M0 0 C1.47906892 -0.02689216 2.95827483 -0.04634621 4.4375 -0.0625 C5.26121094 -0.07410156 6.08492188 -0.08570313 6.93359375 -0.09765625 C9 0 9 0 10 1 C10.125 3.5 10.125 3.5 10 6 C9 7 9 7 6.93359375 7.09765625 C6.10988281 7.08605469 5.28617187 7.07445312 4.4375 7.0625 C3.61121094 7.05347656 2.78492188 7.04445313 1.93359375 7.03515625 C1.29550781 7.02355469 0.65742188 7.01195312 0 7 C0 4.69 0 2.38 0 0 Z " fill="#E4E4E4" transform="translate(334,256)"/>
<path d="M0 0 C2.64 0 5.28 0 8 0 C8.33 0.99 8.66 1.98 9 3 C12.3 3 15.6 3 19 3 C19 3.33 19 3.66 19 4 C17.72125 4.144375 16.4425 4.28875 15.125 4.4375 C12.74307106 4.70642746 11.15547309 4.92226346 9 6 C6.8359375 5.44140625 6.8359375 5.44140625 4.375 4.5625 C3.55773437 4.27503906 2.74046875 3.98757813 1.8984375 3.69140625 C1.27195313 3.46324219 0.64546875 3.23507812 0 3 C0 2.01 0 1.02 0 0 Z " fill="#ECECEC" transform="translate(222,256)"/>
<path d="M0 0 C2.31 0 4.62 0 7 0 C7.82638376 2.89234315 8 4.88742431 8 8 C7.01 8 6.02 8 5 8 C4.67 7.34 4.34 6.68 4 6 C3.01 5.67 2.02 5.34 1 5 C0.67 6.32 0.34 7.64 0 9 C0 6.03 0 3.06 0 0 Z " fill="#707070" transform="translate(240,292)"/>
<path d="M0 0 C7.75 0.875 7.75 0.875 10 2 C10 2.99 10 3.98 10 5 C7.26094655 6.36952673 5.02912668 6.12621361 2 6 C1.34 5.67 0.68 5.34 0 5 C0 3.35 0 1.7 0 0 Z " fill="#E6E6E6" transform="translate(221,270)"/>
<path d="M0 0 C0.66 0.33 1.32 0.66 2 1 C2.6328125 3.28515625 2.6328125 3.28515625 3.125 6.0625 C3.29257812 6.98160156 3.46015625 7.90070313 3.6328125 8.84765625 C3.75398438 9.55792969 3.87515625 10.26820313 4 11 C1.69 11 -0.62 11 -3 11 C-2.69078116 9.54096742 -2.37751201 8.08279278 -2.0625 6.625 C-1.88847656 5.81289063 -1.71445312 5.00078125 -1.53515625 4.1640625 C-1 2 -1 2 0 0 Z " fill="#EAEAEA" transform="translate(377,259)"/>
<path d="M0 0 C0.66 0.33 1.32 0.66 2 1 C2.6328125 3.28515625 2.6328125 3.28515625 3.125 6.0625 C3.29257812 6.98160156 3.46015625 7.90070313 3.6328125 8.84765625 C3.75398438 9.55792969 3.87515625 10.26820313 4 11 C1.69 11 -0.62 11 -3 11 C-2.69078116 9.54096742 -2.37751201 8.08279278 -2.0625 6.625 C-1.88847656 5.81289063 -1.71445312 5.00078125 -1.53515625 4.1640625 C-1 2 -1 2 0 0 Z " fill="#EAEAEA" transform="translate(299,259)"/>
<path d="M0 0 C3 1 3 1 4.25 3.375 C5 6 5 6 4 9 C4 8.34 4 7.68 4 7 C1.69 7.66 -0.62 8.32 -3 9 C-2.01 6.03 -1.02 3.06 0 0 Z " fill="#636363" transform="translate(339,292)"/>
<path d="M0 0 C3 1 3 1 4.25 3.375 C5 6 5 6 4 9 C4 8.34 4 7.68 4 7 C1.69 7.66 -0.62 8.32 -3 9 C-2.01 6.03 -1.02 3.06 0 0 Z " fill="#636363" transform="translate(269,292)"/>
</svg>
