<?xml version="1.0" standalone="no"?>
<!DOCTYPE svg PUBLIC "-//W3C//DTD SVG 20010904//EN"
 "http://www.w3.org/TR/2001/REC-SVG-20010904/DTD/svg10.dtd">
<svg version="1.0" xmlns="http://www.w3.org/2000/svg"
 width="500.000000pt" height="500.000000pt" viewBox="0 0 500.000000 500.000000"
 preserveAspectRatio="xMidYMid meet">

<g transform="translate(0.000000,500.000000) scale(0.100000,-0.100000)"
fill="#000000" stroke="none">
<path d="M0 2500 l0 -2500 2500 0 2500 0 0 2500 0 2500 -2500 0 -2500 0 0
-2500z m1947 334 c190 -196 210 -223 181 -252 -29 -29 -55 -10 -236 178 -101
105 -189 190 -197 190 -7 0 -90 -81 -184 -179 l-171 -180 0 -223 c0 -186 3
-227 16 -246 15 -22 16 -22 324 -22 169 0 316 -3 324 -6 26 -10 38 -41 26 -64
-10 -19 -21 -20 -344 -20 -330 0 -333 0 -367 23 -65 43 -69 64 -69 329 0 136
4 248 10 263 12 32 331 369 375 397 22 14 42 18 75 15 44 -5 51 -11 237 -203z
m-303 -396 c13 -46 28 -95 31 -110 4 -16 11 -28 15 -28 4 0 11 12 15 28 3 15
18 64 31 110 l25 82 55 0 c37 0 54 -4 53 -12 0 -7 -26 -85 -58 -173 l-57 -160
-66 -3 -65 -3 -60 168 c-33 92 -58 171 -56 176 2 4 28 7 58 7 l54 0 25 -82z
m394 -95 l2 -173 -60 0 -60 0 0 168 c0 93 3 172 7 176 4 4 30 6 58 4 l50 -3 3
-172z m306 163 c36 -15 66 -50 66 -78 0 -15 -9 -18 -50 -18 -35 0 -52 5 -58
17 -9 15 -66 22 -79 9 -16 -15 12 -36 64 -46 104 -22 133 -47 133 -114 0 -82
-97 -131 -213 -106 -63 13 -107 52 -107 96 0 22 4 24 50 24 39 0 52 -4 60 -20
14 -25 52 -35 80 -20 31 17 10 37 -55 50 -118 24 -167 104 -106 174 38 44 147
60 215 32z m446 -31 l0 -45 -55 0 -55 0 0 -130 0 -130 -60 0 -60 0 0 130 0
130 -55 0 -55 0 0 38 c0 21 3 42 7 45 3 4 80 7 170 7 l163 0 0 -45z m302 -40
c16 -44 45 -122 63 -172 l34 -93 -59 0 c-55 0 -60 2 -66 25 -6 23 -11 25 -65
25 -54 0 -60 -2 -69 -25 -9 -23 -15 -25 -65 -25 -30 0 -55 2 -55 4 0 8 111
310 121 328 9 16 20 18 71 16 l61 -3 29 -80z m420 62 c56 -38 58 -144 2 -169
l-24 -11 39 -74 38 -73 -62 0 -63 0 -31 65 c-22 49 -35 65 -50 65 -19 0 -21
-6 -21 -65 l0 -65 -55 0 -55 0 0 176 0 176 128 -4 c102 -3 132 -7 154 -21z
m360 -62 c16 -44 45 -122 63 -172 l34 -93 -59 0 c-55 0 -60 2 -66 25 -6 23
-11 25 -65 25 -54 0 -60 -2 -69 -25 -9 -23 -15 -25 -65 -25 -30 0 -55 2 -55 4
0 8 111 310 121 328 9 16 20 18 71 16 l61 -3 29 -80z m-1399 -367 c2 -7 0 -21
-5 -31 -6 -12 -5 -23 3 -33 6 -8 7 -14 3 -14 -5 0 -15 9 -22 20 -16 26 -31 25
-42 -2 -7 -19 -9 -14 -9 25 l-1 47 34 0 c19 0 36 -6 39 -12z m110 5 c-41 -5
-45 -32 -5 -34 l27 -2 -27 -4 c-39 -6 -35 -31 5 -36 31 -4 31 -4 -5 -5 l-38
-2 0 45 0 45 38 -2 c36 -1 36 -1 5 -5z m142 -29 c17 -41 20 -68 4 -41 -13 22
-45 22 -53 1 -4 -9 -9 -15 -11 -12 -7 7 27 88 36 88 5 0 16 -16 24 -36z m113
-47 c24 -4 24 -4 -5 -6 l-33 -1 2 48 1 47 4 -42 c4 -36 7 -42 31 -46z m195 76
c-41 -5 -45 -32 -5 -34 l27 -2 -27 -4 c-39 -6 -35 -31 5 -36 31 -4 31 -4 -5
-5 l-38 -2 0 45 0 45 38 -2 c36 -1 36 -1 5 -5z m152 -3 c4 -6 -6 -7 -25 -4
-40 8 -39 -11 1 -25 21 -7 30 -16 27 -28 -4 -20 -45 -30 -60 -15 -6 6 -1 8 15
5 37 -7 44 16 8 28 -29 10 -39 28 -24 42 10 11 51 8 58 -3z m118 3 c-19 -4
-23 -11 -25 -46 l-1 -42 -4 42 c-3 29 -9 43 -21 46 -9 3 3 5 28 4 25 0 35 -2
23 -4z m122 -29 c17 -41 20 -68 4 -41 -13 22 -45 22 -53 1 -4 -9 -9 -15 -11
-12 -7 7 27 88 36 88 5 0 16 -16 24 -36z m128 29 c-19 -4 -23 -11 -25 -46 l-1
-42 -4 42 c-3 29 -9 43 -21 46 -9 3 3 5 28 4 25 0 35 -2 23 -4z m109 0 c-40
-5 -38 -25 4 -34 l29 -7 -32 -1 c-22 -1 -33 -6 -33 -15 0 -9 13 -16 33 -19 31
-4 31 -4 -5 -5 l-38 -2 0 45 0 45 38 -2 37 -1 -33 -4z"/>
<path d="M2981 2371 c-7 -24 -15 -49 -18 -57 -4 -10 4 -14 31 -14 35 0 36 1
30 28 -4 15 -12 40 -18 56 l-12 29 -13 -42z"/>
<path d="M3340 2405 c0 -33 2 -35 34 -35 49 0 66 9 66 35 0 26 -17 35 -66 35
-32 0 -34 -2 -34 -35z"/>
<path d="M3761 2371 c-7 -24 -15 -49 -18 -57 -4 -10 4 -14 31 -14 35 0 36 1
30 28 -4 15 -12 40 -18 56 l-12 29 -13 -42z"/>
<path d="M2410 2055 c0 -9 9 -15 25 -15 16 0 25 6 25 15 0 9 -9 15 -25 15 -16
0 -25 -6 -25 -15z"/>
<path d="M2695 2050 c-8 -13 -1 -24 14 -19 6 3 7 10 2 18 -6 10 -10 10 -16 1z"/>
<path d="M3395 2050 c-8 -13 -1 -24 14 -19 6 3 7 10 2 18 -6 10 -10 10 -16 1z"/>
</g>
</svg>
